# xmcd
#
# Track frame offsets:
#	150
#	17196
#	33460
#	53206
#	69212
#	86893
#	103419
#	122313
#	137764
#	154948
#	172413
#	187664
#	205605
#	220048
#	233536
#	253471
#	268590
#	293187
#
# Disc length: 4094 seconds
#
# Revision: 2
# Processed by: cddbd v1.5.2PL0 Copyright (c) Steve Scherf et al.
# Submitted via: EasyCDDAExtractor 15.3.0.1
#
DISCID=070ffc12
DTITLE=Yuri - Lo Esencial De Yuri - CD 2
DYEAR=2010
DGENRE=Latin
TTITLE0=No Puedo Mas
TTITLE1=Dejala
TTITLE2=Imposible Amarte Como Yo
TTITLE3=Un Corazon Herido
TTITLE4=Sabes Lo Que Pasa
TTITLE5=Me Tienes Que Querer
TTITLE6=Mi Amor Es Para Ti
TTITLE7=Cosas Del Amor
TTITLE8=Asi Es La Vida
TTITLE9=Vivir A Dos
TTITLE10=Tiempos Mejores
TTITLE11=Este Amor No Se Toca
TTITLE12=Dame Un Beso
TTITLE13=Hombres Al Borde De Un Ataque De Celos
TTITLE14=Que Sabes Tu Del Amor
TTITLE15=Cosas Del Amor (Duo Con Ana Barbara)
TTITLE16=A Better Place (Un Lugar Mejor) (Dueto Con Don Johnson)
TTITLE17=El Pequeño Panda De Chapultepec
EXTD=
EXTT0=
EXTT1=
EXTT2=
EXTT3=
EXTT4=
EXTT5=
EXTT6=
EXTT7=
EXTT8=
EXTT9=
EXTT10=
EXTT11=
EXTT12=
EXTT13=
EXTT14=
EXTT15=
EXTT16=
EXTT17=
PLAYORDER=
